<svg width="160" height="34" viewBox="0 0 160 34" fill="none" xmlns="http://www.w3.org/2000/svg">
<path d="M29.093 0.120903L28.3849 0.0872498L27.8792 0.120903H25.4179L25.1818 0.323236L25.3841 0.390646L25.5191 0.491812C25.6539 0.592976 25.6876 0.660385 25.6876 0.795303V1.13246L25.7213 1.4022C25.8225 1.43585 25.8562 1.53702 25.8225 1.63818L25.7213 1.90792L25.8562 2.1439C25.7888 2.27882 25.7888 2.34623 25.8562 2.48115L25.7888 2.95313L25.7213 4.53781C25.7213 4.70639 25.6876 4.84131 25.5527 5.00988L25.3167 5.07729L25.1482 5.27962L25.3167 5.31338L28.857 5.34703L28.9244 5.31338C29.093 5.27963 29.1942 5.21221 29.2279 5.04364L29.329 4.63898L29.4302 3.99834L29.329 3.96468H29.2279L29.1268 4.0995L29.0592 4.23442L28.8233 4.53781L28.5199 4.7739L28.0815 4.84131H27.3397C27.0359 4.80765 26.8666 4.70668 26.6983 4.53743C26.631 4.43646 26.5974 4.36914 26.631 4.26817V3.99843L26.6984 3.72879V3.39154C26.5973 3.35788 26.5973 3.25672 26.6984 3.22296L26.7322 2.98698L26.7658 2.95323H26.867H28.0471C28.0809 2.98698 28.0809 2.98698 28.1819 2.98698L28.5529 3.18931L28.7214 3.39154L28.9238 3.32413L28.9912 2.04294L28.9238 1.94177L28.7214 2.04294L28.654 2.27892C28.5192 2.34633 28.3843 2.41374 28.2157 2.4475L26.6992 2.41384C26.6318 2.31277 26.598 2.17785 26.6318 2.04303C26.6992 1.94187 26.6992 1.80695 26.6318 1.67212L26.7329 1.23381L26.6318 0.761745C26.7329 0.66058 26.8341 0.660579 26.9689 0.660579L28.0141 0.728084L28.2165 0.660579H28.385L28.52 0.761745C28.6548 0.761745 28.7222 0.896658 28.7897 1.03148L28.9245 1.40239L29.0593 1.36863L29.1269 0.492003L29.228 0.323426C29.228 0.222262 29.1943 0.188601 29.0931 0.121094L29.093 0.120903Z" fill="url(#paint0_linear_5_4)"/>
<path d="M24.0357 0.795982L24.2718 0.492483C24.3392 0.391319 24.474 0.323914 24.609 0.323914L24.6764 0.256497V0.189087L24.1032 0.0879211L23.5974 0.121582L22.7883 0.0879211L22.451 0.222748C22.5522 0.323913 22.6534 0.357667 22.7883 0.391324L22.9905 0.661059L23.0917 0.964558L23.2266 1.94235C23.2603 2.17834 23.2266 2.34691 23.0917 2.48183L22.5185 2.34692H20.9001C20.7315 2.41433 20.5966 2.34692 20.4618 2.27951V1.40287L20.5966 0.593649L20.9001 0.391324L21.0349 0.357663L21.1698 0.256497L21.0349 0.121582C21.0013 0.121582 20.9675 0.121579 20.9675 0.0879211L19.0457 0.189087L18.9109 0.357663L19.2143 0.45883L19.3828 0.593649C19.4502 0.728568 19.5514 0.897146 19.5514 1.03197L19.5852 1.80743L19.5514 2.14458C19.6526 2.2795 19.6526 2.44808 19.5852 2.61665L19.5514 3.45963C19.5177 3.52704 19.5178 3.6282 19.5852 3.72937C19.6526 3.76303 19.6526 3.86419 19.6526 3.99901L19.5852 4.43733L19.4502 4.84198C19.4166 5.01056 19.3154 5.04432 19.2143 5.04432L19.0119 5.14538L18.9109 5.2803L19.72 5.31405L19.7875 5.2803L20.9675 5.31405L21.1698 5.17914L20.9001 5.07797C20.6972 5.00969 20.5962 4.84141 20.5626 4.63946L20.4614 4.09998L20.4952 3.49309L20.4277 3.2571L20.4614 2.98737L20.6974 2.81879L22.417 2.85245L23.0913 2.61646L23.1251 2.95361L23.0913 3.22335L23.1251 3.52685C23.1925 3.89775 23.1925 4.30232 23.0576 4.70688C23.0576 4.8418 22.9565 4.94296 22.8216 5.01037L22.5518 5.14519V5.28011H24.6086L24.6423 5.14519L24.4062 5.04412L24.2377 4.9092C24.1028 4.63946 24.0353 4.36972 24.0353 3.99882L24.0017 3.05478C23.9679 2.95361 23.9679 2.85245 24.0017 2.75138L24.0353 2.17815V1.80724C23.9679 1.67242 23.9679 1.50384 24.0017 1.36892C24.1028 1.16669 24.1029 0.998024 24.0353 0.795791L24.0357 0.795982Z" fill="url(#paint1_linear_5_4)"/>
<path d="M17.36 0.120903L17.2589 0.22207L15.2359 0.0872498L14.865 0.120903L14.5616 0.0872498L14.4604 0.22207L14.4266 0.323236L14.3255 1.23362L14.2581 1.4022C14.2244 1.50336 14.2244 1.57077 14.2581 1.63818C14.4266 1.57077 14.4941 1.53702 14.5616 1.4022L14.629 1.0987C14.7301 0.795301 14.8987 0.660388 15.1684 0.660388H15.9103V1.0987C15.9103 1.36844 16.0113 1.53701 16.1462 1.67193L16.0113 1.70559L15.9103 3.89727C15.9439 4.0995 15.9439 4.16701 15.9103 4.30183L15.8765 4.80756C15.7753 4.94247 15.6742 5.04363 15.5394 5.07729C15.3708 5.07729 15.2359 5.14471 15.1347 5.27962C15.1684 5.31338 15.2359 5.34703 15.3708 5.34703L17.4949 5.31338L17.596 5.27962C17.6298 5.21221 17.6298 5.1447 17.5624 5.07729L17.0566 5.00988L16.9217 4.50416L16.8205 4.0995C16.8543 3.96467 16.8543 3.76235 16.8205 3.59377L16.7869 3.08805C16.8205 2.81831 16.8543 2.48115 16.8205 2.1439L16.7869 1.16621C16.8205 1.0987 16.8205 0.963879 16.8205 0.795303L16.9891 0.660388L17.8658 0.592971C18.0007 0.592971 18.1018 0.761549 18.1355 1.03129V1.26728L18.2367 1.50336L18.3716 1.43585L18.4052 0.120903L18.3716 0.0872498L17.4949 0.120903H17.36V0.120903Z" fill="url(#paint2_linear_5_4)"/>
<path d="M74.3084 18.4603L72.7911 18.5278L72.6225 18.6289L69.6217 18.4941L69.116 18.5278L68.6103 18.4941L68.5091 18.5953C68.5091 18.6289 68.4753 18.6627 68.4417 18.7638L68.2393 20.1125C68.2393 20.2136 68.2056 20.3148 68.1382 20.4159C68.1044 20.5508 68.1382 20.6183 68.2056 20.7194C68.4417 20.6857 68.5765 20.6183 68.5765 20.4159L68.7451 19.9102C68.8462 19.6405 69.0148 19.4381 69.1834 19.4045L70.5995 19.3707L70.6669 19.9102C70.6669 20.0788 70.6669 20.2136 70.7344 20.4159L70.9366 20.8542C70.9366 20.8542 70.8692 20.888 70.8355 20.888H70.8018L70.6669 24.7654C70.5657 24.934 70.5657 25.17 70.5657 25.4061L70.06 25.8444L69.7566 25.9118L69.5205 26.0804C69.5543 26.2152 69.6555 26.2827 69.7903 26.2152L72.9596 26.1815L73.0946 26.0804C73.1957 25.9792 73.1957 25.9456 73.0946 25.8444L72.3528 25.7769C72.2516 25.6758 72.2516 25.6421 72.2516 25.4397L72.1168 24.934L72.0156 24.3608L72.0494 23.6865L71.9144 22.911L72.0494 21.4949L71.9144 20.0788C72.0156 19.9102 72.0494 19.7079 72.0156 19.5055L72.2516 19.3033L73.5665 19.1684C73.7352 19.2021 73.87 19.4381 73.9374 19.8428L73.9712 20.2136C73.9375 20.3148 73.9712 20.4497 74.0049 20.5508C74.1398 20.5845 74.2072 20.5508 74.3084 20.4497V19.5055C74.2409 19.1347 74.3084 18.7976 74.3758 18.4941L74.3084 18.4603Z" fill="url(#paint3_linear_5_4)"/>
<path d="M78.3472 18.5276L78.1112 18.4939L75.279 18.5276C75.2116 18.5951 75.1441 18.6625 75.1441 18.7974C75.279 18.8985 75.4138 18.9322 75.5488 18.9322L75.7847 19.1682C75.9533 19.3705 76.0545 19.5391 76.0545 19.8088V20.4831L76.0882 20.9552L76.0545 21.4609L76.1894 21.7982L76.0882 22.2028L76.0545 23.4503C75.9533 23.5851 76.0208 23.6863 76.0882 23.8212C76.1894 23.8886 76.2568 24.0909 76.1894 24.2595C76.0882 24.4617 76.0882 24.6303 76.0545 24.8664L75.9197 25.507L75.6162 25.7767C75.4138 25.8104 75.3464 25.8442 75.2116 25.9116C75.1104 25.9454 75.1104 25.979 75.1104 26.1139H76.3242L76.3916 26.0802L78.1449 26.1813L78.3472 26.0802L78.4821 25.9454L78.0438 25.8442C77.7403 25.6756 77.6055 25.5069 77.5043 25.1698C77.4706 24.9338 77.4368 24.6303 77.4368 24.3269L77.3694 23.8886L77.4368 23.4839L77.3358 23.1805V22.9446C77.3358 22.8434 77.3358 22.7759 77.3694 22.7085L77.5718 22.5399L77.7741 22.5061H80.3028C80.64 22.4387 80.9771 22.3713 81.2806 22.169L81.348 22.6748C81.2806 22.7759 81.2806 22.9108 81.348 23.0794L81.3818 23.5515C81.4829 24.0909 81.4154 24.7315 81.2469 25.271C81.2469 25.507 81.1457 25.6419 80.9097 25.6756C80.7411 25.6756 80.6063 25.7767 80.4714 25.9116L80.5052 26.0802H83.4722L83.6071 25.9116C83.5059 25.8442 83.4384 25.8442 83.3036 25.8104L82.9665 25.5745C82.7979 25.1698 82.6967 24.7315 82.663 24.2595V22.8096C82.5956 22.6748 82.5956 22.5399 82.5956 22.4387L82.7304 21.5285V20.9552C82.5956 20.7192 82.5956 20.4831 82.663 20.2472C82.7304 20.0448 82.7979 19.7751 82.7304 19.5391L83.0001 19.0334C83.1688 18.8648 83.3374 18.7974 83.506 18.7636C83.5734 18.7299 83.6071 18.6625 83.6408 18.7299L83.7082 18.5951L83.3036 18.4601L82.0561 18.5276L80.7749 18.4939C80.6063 18.4601 80.4714 18.5277 80.3702 18.6625L80.5726 18.7974L80.8423 18.8985C80.9771 18.9996 81.112 19.067 81.1457 19.2694L81.2806 19.674L81.3818 20.4157C81.3818 20.6181 81.4154 20.8878 81.483 21.225C81.5504 21.5284 81.5166 21.7644 81.348 22.0004L80.4376 21.7644H77.7403L77.4368 21.6633C77.3694 21.2587 77.3694 20.8541 77.4368 20.4157C77.4368 19.9774 77.4706 19.5729 77.6055 19.1682C77.7066 19.0334 77.8753 18.8985 78.0438 18.8985L78.4821 18.7299L78.3472 18.5276V18.5276Z" fill="url(#paint4_linear_5_4)"/>
<path d="M85.2614 18.4988L84.7557 18.5326C84.5196 18.4988 84.4185 18.5326 84.3848 18.7685L84.9243 19.0383C85.0591 19.1395 85.1265 19.2743 85.1603 19.4428V19.9823C85.1265 20.0497 85.1603 20.0835 85.1603 20.1172L85.194 20.4206C85.3288 20.4544 85.3963 20.5892 85.3288 20.7241L85.194 21.095C85.194 21.1624 85.2614 21.331 85.3962 21.3984L85.2951 21.7356L85.3962 22.0053C85.3288 22.1402 85.2951 22.3762 85.2614 22.6797V23.6238C85.194 23.9609 85.2614 24.1632 85.2614 24.3318C85.194 24.5004 85.194 24.7701 85.194 25.0399C85.2614 25.2759 85.1603 25.5119 84.9243 25.6468L84.6208 25.8491C84.4859 25.8491 84.3848 25.9503 84.351 26.0851L84.6208 26.1863L84.9243 26.1188L89.8806 26.2199L89.9143 26.1863C90.1503 26.0851 90.2852 25.9503 90.3526 25.7816L90.5212 25.1747C90.6224 25.0061 90.6561 24.8713 90.6561 24.669C90.6224 24.5004 90.6224 24.3655 90.6561 24.2307C90.6561 24.1295 90.6224 24.0958 90.5212 24.1295H90.3526C90.2852 24.1632 90.2178 24.2644 90.2178 24.3318L90.1503 24.5342L89.7457 25.0061L89.3074 25.4108L88.7005 25.4444H87.5542C87.217 25.4108 86.8798 25.2759 86.6101 24.9387C86.5764 24.8713 86.509 24.7364 86.5764 24.6016V24.2644L86.6438 23.8261L86.6101 23.354C86.509 23.2191 86.509 23.118 86.5764 23.0505L86.7112 22.7134C86.7112 22.7134 86.7112 22.6797 86.7787 22.6797L86.8798 22.646L88.6668 22.6797L88.9703 22.7808C89.1051 22.7808 89.3074 22.8483 89.3748 22.9495L89.6446 23.354C89.7457 23.354 89.8469 23.3203 89.9143 23.2191L90.0155 21.331L89.9817 21.1625C89.7795 21.1287 89.712 21.1624 89.6446 21.331L89.5098 21.6344L88.9365 21.9042L86.6438 21.8705C86.5764 21.6682 86.509 21.5334 86.5764 21.331C86.6438 21.1287 86.6438 20.9601 86.5764 20.7578C86.7112 20.5892 86.745 20.4206 86.7112 20.1172L86.5764 19.4428C86.7112 19.2743 86.8461 19.2069 87.0147 19.2743L88.5656 19.3754L88.7342 19.2743H88.9365L89.3074 19.4092C89.5098 19.4428 89.712 19.5778 89.712 19.8137C89.7457 20.0497 89.7795 20.2183 89.9143 20.4206L90.1503 20.3195L90.2515 19.0383L90.3526 18.7348C90.3864 18.6336 90.3526 18.5326 90.2178 18.4988H88.3296C87.8239 18.6 87.3518 18.5326 86.7787 18.4988C86.3066 18.3976 85.7334 18.3976 85.2614 18.4988V18.4988Z" fill="url(#paint5_linear_5_4)"/>
<path d="M71.9908 8.29004L71.5861 8.62719C71.3164 8.9981 71.1478 9.369 71.0804 9.7399L71.0467 10.313L70.8444 10.7851V10.9873L70.9118 11.0885L71.0467 11.6954C71.0804 11.7629 71.0804 11.9651 71.0804 12.1337C71.1478 12.1337 71.1816 12.2349 71.1478 12.2686L71.1816 12.471L71.3502 12.7744C71.4513 12.8081 71.5525 12.9429 71.5861 13.0441L71.6873 13.4488L71.8896 13.8196L72.2268 14.1905L72.6313 14.4265C72.7999 14.6288 73.036 14.7299 73.3057 14.7637C73.5417 14.8311 73.8115 14.8985 74.0475 15.1009L74.3172 15.202H76.1716C76.846 15.1345 77.4529 14.9997 77.9924 14.73C77.9586 14.6288 77.8575 14.6288 77.7227 14.6288L77.4192 14.6962L78.2621 14.1905L78.9702 13.415L79.2736 12.6395C79.2736 12.4035 79.3073 12.2349 79.4422 12.0326C79.5096 11.864 79.5433 11.6954 79.5096 11.4257C79.5771 11.156 79.5771 10.8525 79.5096 10.6502L79.3748 9.87472C79.2398 9.40265 79.0038 8.99809 78.7341 8.59353C78.5993 8.32379 78.3632 8.15522 78.1946 7.98655C77.9249 7.85173 77.6889 7.68315 77.4866 7.51457L76.9471 7.27849L76.5088 7.24484C76.3065 7.07626 76.138 7.0425 75.9019 7.0425L75.2613 7.07626L74.7555 7.0425L74.216 7.07626L73.4069 7.37966L72.9011 7.44716C72.7325 7.44716 72.5977 7.51458 72.4628 7.6494L72.6313 7.68315L72.9686 7.54823L73.3057 7.58199L73.2382 7.68315L72.4628 7.98655C72.2605 8.05406 72.1256 8.15522 71.9908 8.29004V8.29004ZM73.3732 8.3238L74.216 7.78431L75.4636 7.7169L75.5311 7.78431L76.5088 8.08771C76.8123 8.32379 77.082 8.62719 77.2843 8.96435L77.8238 10.0096C77.9586 10.549 78.0598 11.156 77.9924 11.7629C78.0598 12.2012 77.9586 12.5384 77.8238 12.8755C77.7563 13.0441 77.7227 13.179 77.6215 13.3138L77.1494 13.9545L76.846 14.1568L76.239 14.4265L75.1938 14.4602L74.8567 14.4265L73.8115 13.9545L73.7103 13.7859L73.0023 13.1453C73.0023 12.9429 72.9686 12.8081 72.9011 12.6732L72.7663 12.2686L72.5303 11.8977L72.3954 11.5943L72.4965 11.3246C72.4965 11.2234 72.4965 11.0885 72.4628 11.0549L72.4965 10.5154C72.4965 10.313 72.5303 10.1445 72.4965 9.94214C72.5977 9.87473 72.6313 9.80731 72.6313 9.7399V9.47016C72.5977 9.23408 72.6651 8.9981 72.8674 8.86327C73.036 8.6946 73.2382 8.55978 73.3732 8.3238V8.3238Z" fill="url(#paint6_linear_5_4)"/>
<path d="M80.5494 7.27839L80.2797 7.17732C80.1447 7.17732 80.0436 7.17733 79.9424 7.31215V7.51447L80.0773 7.58188C80.2122 7.54813 80.3471 7.6493 80.4145 7.78422L80.6842 8.15512L80.7516 8.35735V8.55968C80.8528 8.82942 80.9877 9.09916 80.9877 9.40256C81.0551 9.73981 80.954 10.0095 80.7516 10.2455C80.8528 10.4141 80.8528 10.5489 80.8528 10.785L80.8191 11.2907C80.8528 11.6279 80.9202 11.9988 80.8528 12.3697V13.4149L80.6168 14.2241L80.4145 14.4601L80.1785 14.595L80.0773 14.6961L80.0099 14.8647L80.4145 14.8984L80.7516 14.8647H82.2352L83.3141 14.8984L83.449 14.8647L83.5502 14.7299L82.7072 14.4601C82.5386 14.4264 82.4038 14.2915 82.3027 14.0892L82.1677 13.5497L82.2352 13.28V13.044C82.1341 12.808 82.1341 12.5383 82.2352 12.3697C82.3027 12.1336 82.3701 11.8976 82.3027 11.6953C82.4038 11.5605 82.5386 11.4931 82.6735 11.5605L83.1455 11.4931L84.6291 11.5605C84.8651 11.6279 85 11.7628 85.0337 11.9988L85.1349 12.3359C85.1349 12.4034 85.236 12.4709 85.3709 12.4709L85.5057 12.3359L85.6406 10.6838L85.5732 10.0096C85.4046 10.0096 85.3035 10.0432 85.2697 10.1444C85.2359 10.3129 85.1349 10.4479 85.0337 10.5489L84.6291 10.785H82.2352V9.87463C82.3701 9.60489 82.4038 9.33515 82.3027 9.09916C82.2351 8.82942 82.2351 8.59343 82.3027 8.32369C82.4038 8.08761 82.5386 7.98645 82.7746 8.05396L84.1907 7.98645L85 8.08761L85.3709 8.59344L85.5057 9.20033H85.6743L85.8092 9.03175L85.9103 8.86318V8.08761C85.944 7.85163 85.944 7.58189 85.9103 7.31215L85.3035 7.24474L82.5724 7.27839C81.898 7.31215 81.2237 7.31215 80.5494 7.27839V7.27839Z" fill="url(#paint7_linear_5_4)"/>
<path d="M71.183 19.2489L71.1493 19.3163C71.3178 19.3163 71.4864 19.2825 71.7225 19.2825L71.183 19.2489Z" fill="url(#paint8_linear_5_4)"/>
<path d="M63.5562 8.47815C62.8819 8.0735 62.2413 7.80384 61.567 7.56778L59.0381 7.0283L55.2956 6.99464L55.1607 7.0283L53.576 7.12946L53.2052 7.43297C53.0365 7.39922 52.9017 7.36556 52.7669 7.26439H52.2948L51.9239 7.50037L51.7891 7.83753C51.7216 7.93869 51.6542 7.93869 51.6205 7.90494C51.3844 7.6352 51.1485 7.43298 50.8787 7.39922H49.8335L49.6649 7.43298L49.5638 7.50038L49.53 7.5678L49.294 7.63521L49.058 7.39922H48.9231L48.7546 7.43298H48.35L47.9453 7.50038L47.8105 7.5678L47.7093 7.93868C47.7093 7.93868 47.7093 7.97244 47.743 8.03985L48.4174 8.10726H48.4848C48.6871 8.17467 48.8895 8.20842 49.1255 8.41076L49.53 8.613L49.6986 9.08506C49.9009 9.32105 50.0358 9.52337 50.0695 9.79311L50.1033 10.636C50.2381 10.8047 50.3393 10.9732 50.3393 11.2092L50.3055 11.5801L50.2381 11.8161L50.2044 11.9847V12.3218L50.2381 12.4904L50.2044 12.5242V12.5916V12.8613L50.3393 13.1985C50.373 13.4008 50.373 13.5357 50.3055 13.6705V13.7043V13.7717L50.2381 13.8055V13.9065V14.0414V14.1763V14.3112L50.3055 14.2774L50.3393 14.7495L50.2381 15.3902C50.3393 15.525 50.3393 15.7273 50.3055 15.8959L50.2381 16.4016L50.3393 16.5702C50.373 16.7725 50.4404 16.9748 50.373 17.1771C50.3055 17.3456 50.3055 17.548 50.3055 17.7165L50.3393 18.5258C50.2381 18.7281 50.2044 18.8967 50.2381 19.1327V19.7059C50.3393 19.9081 50.373 20.0431 50.3393 20.2116L50.3055 20.6162C50.2381 20.7174 50.2044 20.8523 50.2381 20.9871L50.3055 21.7289L50.2381 22.5044C50.1033 22.5718 50.0695 22.7067 50.1033 22.8079L50.2381 23.1112C50.3055 23.2124 50.3055 23.3472 50.2381 23.4822C50.1707 23.617 50.1707 23.7519 50.2381 23.8867C50.3393 24.0217 50.3055 24.1902 50.2044 24.325C50.2044 24.5274 50.1707 24.7971 50.0359 24.9994L49.7998 25.6737L49.2941 26.0447C49.1929 26.0783 49.1591 26.0783 49.1255 26.0447L48.6534 25.9435L48.1477 25.6738L47.743 25.5726L46.563 24.3926L45.3492 22.5718L43.5622 19.4361L43.1913 18.6269C43.0228 18.3571 42.8879 18.0874 42.8879 17.7502L43.3937 17.3456L44.7086 15.9294L45.1132 15.2551L45.2143 15.0866L45.2817 14.8506L45.5178 14.3111L45.855 12.0858V12.0183L45.7538 11.7148V11.3103L45.2481 9.92783C45.0795 9.48953 44.7424 9.08496 44.3377 8.71404C43.8994 8.30947 43.3937 7.97232 42.8879 7.7026L42.4159 7.53402H42.3485L42.1461 7.50027L42.0787 7.43286L41.6404 7.36545V7.29794L41.2358 7.26428L41.2021 7.19678H41.1684L40.4603 7.12937C40.3929 7.12937 40.2917 7.12937 40.258 7.0282L38.8756 6.99454H38.5721L35.2342 7.12937L34.2902 7.26428L32.3009 7.29794L31.6939 7.39911C31.4242 7.36545 31.2556 7.43286 31.1546 7.63509L31.2556 8.03974L31.7277 8.0734L32.2334 8.27573H32.3009L32.4695 8.30948L32.8741 8.68038L32.9752 8.8152L33.1438 9.35468L33.2112 9.89416V10.0627L33.2786 10.2987L33.3798 10.5011L33.5147 11.9509L33.4136 11.9846V12.0183L33.3798 12.2205L33.4136 13.4344C33.5147 13.5692 33.6159 13.7042 33.6159 13.9064V14.0413L33.3798 14.7493C33.2786 15.0191 33.2786 15.3562 33.4136 15.6597C33.481 15.7945 33.5147 15.9294 33.4136 16.0643L33.3798 16.5364L33.4136 16.8397V18.3233L33.5147 18.6268L33.5484 18.6605L33.7845 18.8965L33.5147 19.436C33.3798 19.672 33.3798 19.908 33.4136 20.1103V21.459L33.5147 21.7288L33.4136 22.0659V22.3019L33.3798 22.7066V23.3135C33.3798 23.5494 33.3462 23.718 33.2786 23.8866C33.3462 24.1227 33.3462 24.3587 33.2786 24.5946L33.1101 25.2353L32.7055 25.7073L32.2334 26.1119L31.6939 26.2131C31.458 26.2131 31.2894 26.3143 31.1546 26.4491V26.6176L31.1882 26.8874L31.5929 26.9886L32.9415 26.9548L33.2112 26.8874L35.7063 26.82H35.7401L36.0772 26.8874H36.347L36.9201 26.9548L38.1002 26.9886L38.9431 26.9548L39.2466 26.8874H39.2129L39.3478 26.6852V26.4154L38.9769 26.2805L38.4374 26.1793L38.0328 25.9771L37.4596 25.6736L37.0213 25.1341L36.9875 24.797C37.0213 24.5272 36.9875 24.3587 36.9201 24.1227C36.7853 23.9541 36.7515 23.718 36.7515 23.482L36.7853 23.2797L36.6841 23.0437L36.6504 22.3019V22.2345V21.5938V21.4926C36.6841 21.0881 36.6841 20.7172 36.6841 20.3463L36.5492 19.0313L36.6167 18.9977L36.7515 18.8627L37.0213 18.7616H37.055L37.1224 18.7953L37.7293 18.8965H37.8305L38.8757 18.7616H39.0105H39.55H39.7523L39.9209 18.8965L40.4266 20.0765L41.573 22.2345C41.7417 22.639 41.9777 23.0773 42.2811 23.482L43.124 24.7632L44.1018 25.8421L44.6075 26.3142L45.147 26.6176H45.2144L45.2482 26.6851L45.6865 26.8199L46.1585 27.0222H46.5968L46.934 27.1234L47.0688 27.0897C47.1026 27.1234 47.2038 27.1908 47.3048 27.1908H47.3386L47.6083 27.0897H49.2604L50.8451 27.1908H50.8789L51.1148 27.0897H51.2498H51.3846L51.5532 27.1234H51.7217L51.9915 27.0897H53.6437L53.9808 27.1908H57.5212L57.7234 27.1234H57.7572L58.5664 27.0897L59.6116 26.9547L59.7464 26.8873L60.2523 26.8199H60.3871L60.7242 26.7525H60.7917L60.8592 26.6851H61.0277H61.0615V26.6176C61.2975 26.6176 61.5335 26.5839 61.7695 26.449L62.0729 26.3142L62.4438 26.213L62.8821 25.9095L62.9833 25.8421L63.5564 25.5049C64.0285 25.3026 64.3994 24.9992 64.7028 24.6283L65.748 23.4482L66.7258 21.6612L67.4002 19.6719V19.5371L67.5688 18.7279V18.593L67.6699 17.8513L67.7036 17.0757C67.8048 16.8397 67.8048 16.6374 67.7711 16.4014V16.2665L67.7036 16.0305L67.7711 15.491L67.4676 14.3446C67.4002 13.94 67.299 13.5691 67.1979 13.1646L66.7596 11.9844C66.6246 11.5799 66.3886 11.1752 66.0852 10.8381L65.3097 9.89401C64.804 9.32076 64.1971 8.84881 63.5564 8.47789L63.5562 8.47815ZM60.1507 9.4896L60.5216 9.65826L61.4319 10.2652C61.5331 10.4337 61.668 10.5686 61.8029 10.7035C61.9714 10.8046 62.0726 10.9394 62.1064 11.1754C62.4435 11.4452 62.7133 11.8161 62.8818 12.2544C63.0841 12.3893 63.1178 12.5242 63.0841 12.7601L63.4213 13.1984L63.5561 13.6705V13.7043L63.5225 13.6705C63.5561 13.8054 63.6236 13.9402 63.7247 14.0414L63.8933 14.21C63.8596 14.3448 63.8933 14.4797 63.9944 14.5809L64.1968 14.8843L64.2642 14.9518C64.2642 15.0192 64.2642 15.1204 64.163 15.2214C64.1294 15.3563 64.1968 15.4912 64.3316 15.5249H64.9048L65.4443 15.4575L65.8489 15.5249H65.8826L65.9838 15.4912H66.2535L66.6244 15.5249L66.9279 15.6261L67.029 15.6599L66.9953 15.7947H66.9279L66.6581 15.8958L66.6244 15.9295H66.5233H66.4221H66.2872C66.2872 15.9295 66.2535 15.8958 66.2198 15.8958H65.9838L64.3316 16.0644L64.1294 16.233L64.062 16.2667L63.9945 16.5027L64.1968 16.8399C64.2642 16.941 64.2642 17.0759 64.1968 17.2108L64.163 17.5817V17.6153C64.1294 17.7503 64.163 17.8851 64.1968 18.02L64.2642 18.1212L64.163 18.492V18.5257V18.6269V18.6606L64.1968 18.8966L64.163 19.0314L64.0282 19.3686V19.3012L63.8596 20.6837C63.7922 21.0882 63.6573 21.4928 63.4213 21.7963C63.219 22.1672 63.0167 22.5717 62.8818 22.9426L62.1738 23.853C61.8366 23.9879 61.5331 24.2238 61.2972 24.4599C61.0274 24.6622 60.7239 24.8645 60.3868 24.9319L59.9485 25.0668C59.8137 25.168 59.6787 25.2354 59.4428 25.168L57.8581 25.404L54.0819 25.033L53.576 25.0668L52.9355 24.8982H52.9017L52.8006 24.7297L53.0366 24.4599L53.2389 24.325L53.6098 24.2238C53.7446 24.1902 53.8121 24.1228 53.8121 24.0216L53.6435 23.5833L53.6098 22.8415L53.576 22.5718V22.3694L53.6435 21.9311V21.8975V21.6614L53.576 21.4928C53.5086 21.2568 53.5086 21.0208 53.576 20.8523L53.6098 19.4361C53.576 19.1326 53.576 18.8629 53.6098 18.5932L53.5086 13.2659C53.6098 13.0298 53.6435 12.7939 53.576 12.6253C53.5086 12.3893 53.5086 12.1532 53.576 11.9509C53.6098 11.7149 53.6098 11.4451 53.576 11.2091V11.1754L53.6098 10.6359L53.576 10.5348V10.3663C53.5086 10.0628 53.5086 9.79302 53.6098 9.52328V9.21989L53.6435 9.08497H53.7109L54.2504 8.95015L54.7899 8.88264L55.9363 8.71406L57.2849 8.74782L58.4313 8.95015L58.5662 8.88264L59.0382 8.9838L59.0719 9.08497C59.2068 9.11872 59.3754 9.21989 59.5102 9.21989L59.6114 9.25355L60.1509 9.48953L60.1507 9.4896ZM41.5053 10.5349L41.6402 10.8383L42.0785 11.6138L42.1459 11.8835L42.2471 11.9847L42.3482 12.3893C42.4156 12.6253 42.4156 12.895 42.3819 13.1648L42.2807 14.0414C42.1459 14.2774 42.1121 14.4797 42.1121 14.7495C42.1121 15.0192 42.011 15.3226 41.8762 15.4912V15.6599L41.3029 16.4016C41.1007 16.6376 40.9321 16.7725 40.6624 16.8399L39.8531 17.3119L38.8754 17.4805L38.3696 17.4131L37.8976 17.4468C37.6616 17.3456 37.4593 17.3456 37.2907 17.4468C37.1221 17.4805 36.9198 17.4468 36.785 17.2782V17.177V17.0759L36.65 16.0307V15.7273L36.7512 15.4575C36.7512 15.2214 36.7512 15.0866 36.6838 14.8843C36.65 14.7495 36.6838 14.5809 36.8524 14.446L36.7512 14.1762L36.785 13.9065V13.8391L36.8524 13.5694C36.8861 13.5019 36.8861 13.4008 36.785 13.2996L36.6838 12.9962L36.65 12.8613L36.7512 12.6591L36.8524 11.4452V11.4115V11.344L36.8861 10.5349C36.9198 10.4337 36.9198 10.3663 36.9198 10.2652V10.1977L36.8861 10.164L36.9872 9.92792L36.9198 9.35479L36.9872 8.8153C37.0209 8.71414 37.1221 8.68048 37.1895 8.68048C37.2907 8.68048 37.3918 8.68049 37.4593 8.61298L38.9765 8.68048L39.752 8.84906H39.7857L40.6624 9.35478L41.0669 9.75935L41.5053 10.5349L41.5053 10.5349Z" fill="url(#paint9_linear_5_4)"/>
<path d="M2.49478 0.520809C2.29255 0.588218 2.15762 0.588218 1.98906 0.520809L1.58448 0.621969H1.17983C1.04501 0.621969 1.01126 0.655727 1.04501 0.756798L0.943851 0.992878V1.19511L1.04501 1.36378H1.11242L1.04501 1.39744L2.29254 1.53236L2.73084 2.03808L2.86567 2.40896L2.96683 2.44262L3.33775 2.84727V2.88093L3.27034 3.01585L3.20283 3.25184L3.13542 3.353L3.10166 3.48782L3.13542 3.72391L3.33775 3.92624L3.37141 4.12847V4.26339V4.29705V4.36455L3.33775 4.39821L3.23658 4.80286L3.33775 5.20743L3.37141 5.40976C3.40516 5.54458 3.40516 5.71315 3.37141 5.88174L3.53998 7.43277V7.50018L3.60749 7.66876V7.70251L3.47257 8.54539V8.57914L3.53998 8.81513V8.95005L3.47257 9.38835V9.52317L3.50632 9.7255L3.77606 10.6358C3.91088 10.8045 3.94464 10.973 3.94464 11.1753L3.91089 12.996C4.01205 13.2994 4.01205 13.6366 3.94464 13.9401L4.01205 14.4122C4.0458 14.5807 4.01205 14.7156 3.94464 14.8167L3.91089 15.3225L4.01205 16.8397L3.94464 17.3454L4.01205 17.6152C4.0458 17.7501 4.01205 17.8849 4.01205 18.0198V18.2221L3.77606 19.0313C3.77606 19.2674 3.80972 19.5034 3.94464 19.7057V19.8068L3.87723 20.1777L3.80972 20.2114L3.87723 20.616L3.91089 20.7171L3.94464 20.8183V20.7509C4.01205 20.9869 4.01205 21.2229 3.94464 21.4589L3.77606 22.2682V23.0436C3.80972 23.2796 3.74231 23.5493 3.64115 23.7179C3.60749 24.0214 3.64115 24.3923 3.74231 24.7631C3.80972 25.1341 3.87723 25.4375 3.87723 25.8083C3.80972 26.1118 3.6749 26.449 3.33775 26.7187C3.23658 26.9547 3.27034 27.1234 3.40516 27.3256L3.60748 27.2582L3.74231 27.3256C3.74231 27.4605 3.77606 27.4942 3.87723 27.5279L3.94464 27.7639L3.64113 28.0674C3.53997 28.236 3.40515 28.2697 3.23656 28.236L3.20281 28.3708L3.23656 28.5057C3.20281 28.7081 3.23657 28.9103 3.33773 29.0789C3.47255 29.2138 3.47256 29.4498 3.40514 29.6859L2.96683 30.2252C2.89942 30.3939 2.83202 30.5961 2.62968 30.7311L1.92163 31.1694C1.85422 31.2368 1.82047 31.2368 1.7193 31.2368C1.68564 31.2705 1.6519 31.2705 1.55073 31.2705L1.38215 31.3716L0.910092 31.4391H0.876432L0.741513 31.8437V31.9111H0.674103V32.1472L1.11241 32.2146L0.674103 32.282L1.58447 32.4169L7.82197 32.4843L8.09171 32.5855H8.36145L9.20432 32.4843L17.1953 32.6191C17.3301 32.5855 17.4313 32.4506 17.4651 32.3157L17.7348 31.6751C17.8696 31.5065 17.9034 31.2705 17.8696 31.0344L18.2742 29.6183L18.2068 29.8544L18.6788 28.1348L18.8812 27.7302V27.5279L18.9822 27.4941H19.8252L19.9264 27.5953L20.8367 27.6291L23.4667 27.4605L23.7027 27.3593L23.9724 27.2581L24.2084 27.2244H24.377C24.5119 27.1907 24.6467 27.0896 24.7816 27.0222L25.2536 26.8872L25.5233 26.7524L25.7257 26.6175L26.7709 26.1792C26.9732 26.078 27.2092 25.9432 27.3778 25.8083L27.6813 25.4375C27.8836 25.4375 28.0522 25.37 28.187 25.1677L29.0636 24.2574C29.1648 24.0888 29.2997 23.9876 29.4683 23.954L29.9402 23.2796L30.2437 22.4367L30.3786 22.3018L30.6483 21.9309L30.6821 21.7287L31.0192 21.3915C31.0192 21.088 31.053 20.852 31.1878 20.6159C31.3227 20.4137 31.3901 20.1102 31.3227 19.8068L31.4575 19.5033L31.6935 18.4581V17.8512V17.7163V17.5815L31.7273 17.278C31.6935 17.0757 31.6935 16.9071 31.5924 16.7048L31.5587 16.4351V16.1654C31.5924 15.491 31.5587 14.8841 31.3227 14.3446L31.1541 13.704C31.1204 13.5017 31.0192 13.2994 30.8169 13.1646C30.7495 12.7263 30.6147 12.3216 30.2774 11.9844C30.0078 11.3438 29.6369 10.8044 29.1648 10.2649L28.9625 10.0288L26.6023 8.07324C26.4337 7.93842 26.1978 7.83725 26.0292 7.83725L25.4559 7.66867C25.3211 7.53385 25.1862 7.5001 25.0514 7.53385L24.5119 7.29777C24.4781 7.29777 24.377 7.29777 24.3433 7.26411L24.141 7.12919L22.7249 6.75831L20.2298 6.72465L19.859 6.75831H19.4543L17.229 7.12919L16.6895 7.36528L16.1164 7.5001L14.7677 8.17441C14.6328 8.34298 14.3631 8.47791 14.0934 8.61271L13.5539 8.88246C13.4191 8.98362 13.2841 9.08478 13.0482 9.08478L12.7784 9.32077L12.6435 9.65801C12.6098 9.75908 12.5087 9.86024 12.3738 9.89399L12.0704 9.99516L11.8343 10.1974L11.9018 10.5009C11.9018 10.5683 11.9018 10.6695 11.868 10.7706L11.5646 10.7032V10.9392C11.4297 11.3101 11.2274 11.681 11.0252 11.9508C10.7217 12.2541 10.5531 12.5913 10.4519 12.9285C10.4519 13.1645 10.3845 13.4343 10.2496 13.6703C10.2496 13.8388 10.2496 14.0412 10.1822 14.2098L10.0136 14.4795L9.97984 14.5469V14.5807V14.6143L9.91244 14.6818V14.8504V15.019L9.87878 15.1201V15.3224L9.81127 15.4909V15.5247L9.87878 16.4013L9.81127 16.5362L9.91244 17.4803L9.87878 17.6151L9.81127 18.0198V18.222L9.91244 18.6267V18.7615L9.97984 19.065L10.5193 20.7171C10.6542 21.2228 10.8566 21.7286 11.16 22.1669L11.2949 22.4367L11.5983 22.9424V22.9762L13.2504 24.8642C13.8236 25.4375 14.4979 25.9094 15.2397 26.2803C15.5095 26.3141 15.8129 26.4489 16.1501 26.685C16.4198 26.8198 16.7906 26.8872 17.0941 26.9884L17.8359 27.3255C17.7685 27.6627 17.5662 28.0336 17.2965 28.3707L16.4535 29.2811C16.1838 29.5846 15.8129 29.8206 15.4757 29.888L14.3294 30.1241C14.0596 30.3263 13.8236 30.3938 13.655 30.4612L11.3623 30.2252C11.2274 30.2589 11.16 30.3263 11.16 30.4612L10.9576 30.6635C10.5868 30.3263 10.1485 30.2252 9.64269 30.3263L8.19292 30.1915L7.82203 28.944V28.9102L7.78827 28.8091L7.82203 28.708V28.9102C7.82203 28.708 7.85578 28.5731 8.05801 28.4382C8.15918 28.3033 8.29409 28.1347 8.32775 27.9324L7.95686 26.1117L7.92321 26.0443L7.82204 25.6734L7.92321 25.7072H7.95686C8.02437 25.5722 8.05803 25.4037 8.05803 25.2689V24.7968V24.6619L8.02437 24.5945L7.92321 24.527V24.5945C7.92321 24.6282 7.92321 24.7294 7.8558 24.763L7.78829 24.4933L7.68712 24.1225L7.78829 23.4481V22.7738V22.5715V22.1669L7.92321 23.5492V23.4481V22.0657L7.78829 21.5262L7.82204 14.4458C7.82204 14.2098 7.82204 13.9738 7.68712 13.8052L7.82204 12.5239L7.68712 11.3101C7.78829 11.1078 7.82204 10.9393 7.82204 10.7033C7.82204 10.5347 7.78829 10.2986 7.68712 10.1638C7.82204 9.89403 7.8558 9.62429 7.78829 9.35455C7.68712 9.08481 7.72088 8.84883 7.8558 8.57909C7.78829 7.93843 7.78829 7.2978 7.82204 6.62349L7.92321 4.70165L8.05803 4.297L8.15919 3.58896L8.36152 2.88091L8.56385 2.57752L8.8335 2.30778C9.00217 1.97062 9.23815 1.80206 9.54154 1.7683L10.2496 1.43114H10.7217L10.8228 1.39739H11.0252L11.2949 1.29622H11.4635C11.5983 1.36373 11.7332 1.29622 11.8343 1.19506L11.6994 1.1614L11.7669 0.857901L11.7332 0.520742L10.4519 0.486992L7.58597 0.723072H7.01272L6.60815 0.756732L2.49461 0.520742L2.49478 0.520809ZM23.6015 9.11864L24.0062 9.38838L25.1862 10.3662L25.7931 11.0405L25.8943 11.0741C26.0966 11.3439 26.2314 11.6136 26.3663 11.9509C26.5686 12.2205 26.7372 12.5914 26.8721 12.9286L27.3778 13.9739L27.6475 14.9853C27.8161 15.3225 27.8836 15.6597 27.8161 16.0643C27.9847 16.2666 28.0184 16.5026 28.0184 16.7723C27.9847 17.0421 27.9847 17.278 28.0522 17.4804C28.1533 17.5815 28.1533 17.7163 28.1533 17.8175L28.0522 18.1547C28.0184 18.3232 28.0184 18.4582 28.1196 18.593C28.1533 18.6605 28.1196 18.7953 28.1196 18.8965L28.0522 19.2674C27.9173 19.4022 27.8836 19.5708 27.9173 19.7057C28.0184 19.9079 28.0184 20.0765 28.0184 20.2788L27.9173 20.616C27.9173 20.7171 27.8836 20.852 27.7487 20.8857L27.5464 21.7623L27.2766 22.0658C27.2092 22.2344 27.1418 22.3692 27.1418 22.5379C26.9732 22.9425 26.7035 23.347 26.3663 23.7179C26.0628 24.1226 25.6919 24.3923 25.2874 24.662C24.9165 24.9992 24.5456 25.269 24.2084 25.4038L22.9272 25.7747C22.826 25.8421 22.6911 25.9095 22.5226 25.9095L21.1064 25.9433L20.1961 25.8421L19.6567 25.7073L19.1172 25.7747L18.5439 25.6398L18.4091 25.505L18.2068 25.4375L17.7685 24.9992C17.5999 24.8643 17.4651 24.7631 17.229 24.7295L17.0604 24.4598L16.7907 24.3923L16.5209 24.3586C16.3861 24.2574 16.3187 24.0888 16.3187 23.8865C16.3861 23.7517 16.2512 23.6168 16.049 23.5831L15.4757 22.8413L14.1945 20.6835L14.2282 20.5823V20.4138L14.1945 20.2114L13.8574 19.7057L13.8236 19.5708L13.8574 19.436L13.9248 19.3685V19.3011C13.9248 19.1662 13.8574 19.0313 13.8236 18.9302C13.7224 18.7953 13.6887 18.7279 13.7224 18.593V18.5256L13.6887 18.4918L13.4527 17.7501C13.4191 17.6152 13.4527 17.4804 13.5539 17.3118C13.5201 17.1095 13.4527 16.9072 13.3853 16.7049C13.2504 16.5026 13.2504 16.3003 13.3179 16.0643C13.4527 15.7945 13.4527 15.5248 13.3179 15.3225L13.3853 14.8842C13.4191 14.7493 13.419 14.6819 13.419 14.547L13.655 14.0749C13.6887 13.9064 13.6887 13.7715 13.6887 13.5356C13.8236 13.2995 13.9248 13.0635 13.8236 12.7938C13.9584 12.6589 14.0596 12.4902 14.0933 12.3217C14.1608 12.0857 14.2957 11.8834 14.4305 11.7486C14.4305 11.6811 14.4305 11.5462 14.4979 11.445L14.6328 11.3102L14.9026 10.9393L14.97 10.9056L15.0712 10.6696L15.4083 10.1975L15.7455 10.1301V10.0627L15.8129 9.79296L15.9815 9.72555L16.4199 9.52322L16.8582 9.15231C17.1953 8.98373 17.4651 8.88257 17.7685 8.81515L18.072 8.68033C18.1394 8.68033 18.2405 8.61283 18.3754 8.57917H18.4765L18.7463 8.54541L19.016 8.44425H19.1172L20.2973 8.30943H20.7018L22.118 8.57917L23.6015 9.11865L23.6015 9.11864ZM4.248 9.48945L4.31551 8.47801L4.38292 9.86036L4.248 9.48947V9.48945ZM7.72078 22.032L7.58596 21.5263L7.65337 20.6159L7.72078 22.0321V22.032Z" fill="url(#paint10_linear_5_4)"/>
<path d="M158.439 12.1067L157.518 12.2773H156.426L154.175 12.0726C154.073 11.9703 153.97 11.9703 153.834 11.9703H153.527L153.015 12.0726C152.981 11.9703 152.879 11.9703 152.845 11.9703L152.606 12.0726L152.333 12.1067H152.06L151.855 12.1409L151.719 12.1067L151.275 12.209L150.798 12.2432L149.399 13.0278L148.546 13.6418C148.376 13.7101 148.239 13.8465 148.137 13.983L148.001 14.4947H147.83L147.728 14.3241C147.557 14.3241 147.455 14.4264 147.421 14.4947L146.841 15.1428C146.704 15.2793 146.67 15.4157 146.704 15.5521C146.568 15.791 146.534 15.9615 146.534 16.2344C146.5 16.4732 146.397 16.6779 146.227 16.8484V17.1213C146.227 17.2237 146.295 17.2578 146.397 17.2919L146.295 17.599C146.261 17.6671 146.261 17.8036 146.363 17.9401C146.431 18.0424 146.431 18.1788 146.363 18.3153C146.295 18.4176 146.295 18.5199 146.397 18.6564C146.568 18.8611 146.636 19.2022 146.568 19.5093C146.568 19.6457 146.568 19.748 146.67 19.8504L146.943 20.0209C146.977 20.0551 147.045 20.1574 146.977 20.2939L147.455 20.9079C147.591 21.0785 147.762 21.249 148.001 21.3513L148.035 21.4537H148.001L148.137 21.5902L148.41 21.8289L148.819 22.0336L148.956 22.1018C149.194 22.3748 149.467 22.5452 149.74 22.6476L150.116 22.784L150.661 23.1593C150.866 23.2957 151.037 23.4322 151.31 23.4663C151.548 23.5346 151.719 23.6709 151.958 23.8074C152.094 23.8757 152.23 23.9439 152.435 24.0121L152.913 24.2168L154.107 24.7967L154.448 25.0355L154.55 25.1378C154.687 25.0697 154.823 25.172 154.96 25.3084L155.232 25.6837H155.335L155.608 25.8543L155.778 26.1954C156.017 26.2635 156.085 26.4683 156.188 26.707C156.222 26.8776 156.324 27.0481 156.461 27.2529V27.3893L156.597 28.3444L156.324 28.8221C156.188 28.9926 156.154 29.1632 156.188 29.3678L156.017 29.6407L155.881 29.9136C155.744 30.2889 155.608 30.5618 155.403 30.6983C155.267 30.8347 155.096 30.8688 154.891 30.8688L154.414 30.9712C154.175 31.0053 153.902 31.1076 153.697 31.2099L153.152 31.6193C152.981 31.517 152.742 31.4487 152.367 31.3805L151.412 31.3464L151.275 31.2441H151.071L150.15 31.1076L149.979 30.9712C149.467 30.937 148.956 30.8006 148.546 30.5618L148.239 30.3572C148.103 30.2889 147.966 30.1866 147.864 30.1524C147.557 30.016 147.318 29.7772 147.182 29.4702L146.568 28.6173C146.5 28.4468 146.397 28.2421 146.431 27.9692C146.431 27.7646 146.397 27.5258 146.295 27.2869C146.227 27.1506 146.227 27.0141 146.261 26.9117C146.295 26.7752 146.295 26.6388 146.261 26.4683L146.227 26.1954L146.124 25.9224L145.988 25.9566V25.9224C145.783 25.9224 145.647 25.9566 145.613 26.0589L145.579 26.093L145.476 26.6047L145.442 26.7752V27.2529L145.476 27.4234L145.442 29.1632L145.579 30.0501V30.2889L145.749 30.937C145.749 31.1418 145.783 31.3806 145.851 31.6193V31.6535L145.886 31.7216C146.022 31.8581 146.124 31.8922 146.295 31.9263L149.092 32.7792C149.297 32.8133 149.433 32.8133 149.57 32.7792C149.706 32.6769 149.74 32.5744 149.74 32.5063L149.467 32.438L149.263 32.3016C149.263 32.1992 149.331 32.1652 149.399 32.1652L149.604 32.0628L150.252 32.1992C150.491 32.2675 150.627 32.3357 150.798 32.5063V32.6427L150.73 32.7109L150.627 32.8474V32.9498L150.764 33.0861L152.845 33.1203L155.232 32.7792L156.597 32.1992C156.802 32.0627 156.938 31.9946 157.109 31.8923L158.064 31.1077L158.848 30.2207L159.121 29.6407L159.224 29.3678L159.497 28.7538L159.599 28.3104L159.769 27.6963L159.701 26.7071V26.6388L159.565 25.6837C159.497 25.3426 159.428 25.0697 159.258 24.8649L158.848 24.0803C158.405 23.4663 157.859 23.0229 157.245 22.6136C156.665 22.17 156.051 21.8289 155.471 21.556L153.493 20.6691L152.879 20.4303L151.412 19.5093C150.9 19.2363 150.491 18.827 150.081 18.3153C150.081 18.1447 149.979 17.9401 149.877 17.8036L149.808 17.5307L149.57 16.405L149.604 16.3027L149.74 15.8933C149.74 15.6545 149.843 15.5181 150.013 15.4157V15.3816L150.116 15.3133L150.627 14.6993L151.378 14.1876L151.514 14.1194L151.582 14.1876H151.651L151.821 14.0853L152.23 14.0512C152.299 13.9489 152.435 13.9147 152.503 13.8465L153.152 13.9147L153.8 13.8124C153.902 13.7783 154.038 13.7783 154.107 13.8124L154.209 13.8465H154.277H154.482L154.891 13.9147L155.232 13.983C155.539 14.0512 155.812 14.1876 156.051 14.3582L156.324 14.5629L156.836 15.0064L157.109 15.3133L157.654 16.4732L157.723 16.6779L157.757 17.1213V17.1554L157.859 17.4965V17.633C157.791 17.8036 157.859 17.94 157.927 18.0765H158.303C158.439 18.1447 158.541 18.0424 158.644 17.94L158.678 16.2002C158.644 15.6885 158.678 15.1769 158.78 14.7334C158.712 14.2559 158.78 13.8465 158.848 13.5053L158.917 13.1984V12.2432L158.644 12.1067V12.1408L158.541 12.1067H158.439V12.1067Z" fill="url(#paint11_linear_5_4)"/>
<path d="M139.604 12.0443H138.536L138.409 12.1206C138.332 12.0951 138.307 12.1206 138.282 12.1968L137.748 12.2223L137.01 12.4003C136.858 12.4003 136.756 12.4003 136.73 12.4766L136.451 12.5783C136.349 12.4257 136.247 12.4003 136.145 12.4766L135.866 12.7055L135.535 12.7309L134.797 13.5193L134.213 13.9516C134.187 14.0025 134.162 14.1042 134.162 14.2568C134.111 14.3586 134.085 14.4348 133.984 14.4348L133.704 14.4602C133.679 14.4857 133.628 14.4602 133.602 14.4348L133.577 14.3586C133.501 14.3586 133.399 14.4348 133.297 14.562L132.305 16.037C132.153 16.3167 132.051 16.5965 132.051 16.9017C131.949 17.0035 131.924 17.1306 131.924 17.3086L131.847 17.7155V17.6392L131.822 17.7409L131.746 17.9189C131.695 18.0969 131.644 18.275 131.644 18.4784V18.5039C131.619 18.7837 131.619 19.0634 131.644 19.3178C131.619 19.4958 131.619 19.6737 131.644 19.8772C131.644 20.0552 131.644 20.2587 131.593 20.4367L131.644 20.6656L131.72 21.3522L131.797 21.4285V21.4539C131.797 21.4794 131.797 21.5303 131.847 21.5557L132 21.9118C131.949 22.0389 132 22.1151 132.025 22.2169L132.483 23.3105L133.297 24.5312C133.602 24.9635 133.984 25.2942 134.416 25.523C134.696 25.8536 135.001 26.0571 135.357 26.1842C135.688 26.3622 136.044 26.4895 136.374 26.6929L137.137 26.9726L137.519 27.049L137.646 27.1252L138.282 27.2525L138.739 27.2778L139.782 27.3541L139.858 27.3796H140.011L140.367 27.3541H140.774L140.85 27.2778L141.664 27.2525L141.74 27.1761H141.791L141.969 27.1507H142.173L142.758 26.9981L142.961 26.9726L143.139 26.9472L143.215 26.8963L143.521 26.7946L143.699 26.7692L143.902 26.7438L143.953 26.6675L144.105 26.642L144.309 26.5404L144.334 26.4895L144.309 26.2097V26.1589L144.283 25.6502L144.309 25.4722C144.233 25.2688 144.233 25.0907 144.233 24.9127V24.8873C144.283 24.6838 144.233 24.4804 144.156 24.3023C144.131 24.2006 144.131 24.1243 144.207 24.0735V22.5984L144.283 22.5475L144.309 21.5557L144.411 21.3777C144.411 21.1233 144.436 20.8945 144.589 20.7419L144.69 20.4367H144.716V20.1061V20.0044H143.597L143.368 19.9535H143.164L142.808 20.0044H142.452L142.274 20.0552C142.223 20.0044 142.147 20.0552 142.071 20.1061L140.977 19.9535L139.502 20.0044C139.426 20.0044 139.401 20.0552 139.375 20.157V20.1824H139.324V20.3604L139.502 20.5385H140.291H140.596L141.104 20.7673C141.206 20.7673 141.283 20.7927 141.359 20.9453L141.46 21.2251C141.46 21.276 141.486 21.3777 141.562 21.3777L141.638 21.4286C141.664 21.4539 141.689 21.5303 141.74 21.5812L141.791 21.8354V21.8609L141.842 22.0134V22.1152L141.893 22.7255L141.842 23.0561L141.791 24.1243L141.867 24.3023L141.893 24.3786C141.969 24.5058 141.944 24.6329 141.842 24.8109V24.9127L141.867 25.0144L141.893 25.2942C141.893 25.3959 142.02 25.4722 142.173 25.4977L142.351 25.6502V25.5994V25.701L142.325 25.9554C142.274 26.0571 142.325 26.108 142.376 26.2098L142.045 26.3369L141.842 26.3878L141.791 26.4386L141.74 26.464H141.155L140.189 26.3369L138.638 25.9554L138.231 25.9045L137.595 25.5739L137.239 25.4977L136.145 24.5312L135.891 24.1752L135.637 23.8191C135.586 23.6411 135.535 23.4885 135.382 23.3868C135.204 23.2343 135.103 23.107 135.077 22.929C134.95 22.8528 134.899 22.8019 134.899 22.7002L134.874 22.4204L134.848 22.2678L134.772 22.0134L134.594 21.632V21.5303V21.4539L134.467 20.691L134.314 20.3604L134.391 19.6737C134.314 19.5211 134.289 19.3685 134.289 19.1905L134.365 18.631V18.3767C134.365 18.275 134.365 18.1733 134.416 18.097C134.314 17.919 134.314 17.741 134.416 17.6138L134.543 17.1306L134.848 16.1642L135.052 15.9353L135.077 15.6302C135.103 15.5284 135.179 15.4521 135.281 15.3758L135.535 14.9434C135.586 14.7654 135.738 14.6637 135.891 14.5875L136.222 14.384C136.272 14.2822 136.374 14.206 136.476 14.1805C136.629 14.0025 136.807 13.8754 137.01 13.799L137.722 13.5193H137.9C138.027 13.4684 138.154 13.4175 138.332 13.3921L138.917 13.265L140.876 13.2904L141.105 13.3667L141.893 13.5193L142.427 13.8499C142.554 13.8499 142.63 13.9007 142.732 13.9771L143.012 14.1551L143.902 15.2741C143.851 15.4267 143.902 15.5538 143.927 15.681L144.004 15.859L143.927 16.5456V16.6982L144.131 16.8254L144.436 16.7491C144.538 16.7491 144.64 16.6982 144.69 16.5965C144.716 16.4185 144.716 16.2659 144.614 16.1388V16.0116C144.614 15.9099 144.64 15.7573 144.792 15.681L144.741 15.4775L144.64 15.4267L144.614 15.3249V15.2487C144.589 15.1723 144.614 15.0706 144.64 14.9943L144.792 14.7399C144.69 14.6637 144.64 14.5619 144.69 14.4857V14.4602L144.741 14.2059V13.9771L144.716 13.9516V13.799L144.792 13.6973L144.818 13.3159L144.919 12.8835C144.919 12.7055 144.919 12.5783 144.945 12.4765V12.4003V12.3749L144.919 12.324V12.3749L144.894 12.324V12.2986L144.716 12.2731L144.538 12.2986H144.512L144.385 12.2223L143.902 12.2732L143.164 12.1968L142.834 12.1206L139.986 12.0188L139.782 12.0443H139.604H139.604Z" fill="url(#paint12_linear_5_4)"/>
<path d="M131.951 12.2723H131.315L130.908 12.3231H130.476L130.17 12.374L128.772 12.2214L127.576 12.2723C127.5 12.2977 127.475 12.374 127.5 12.4248V12.6283L127.526 12.73H127.5L127.576 12.8063H127.678L127.882 12.8826L128.085 12.908L128.416 13.086L128.568 13.1877C128.696 13.2895 128.797 13.4166 128.874 13.6456L128.975 14.1796L129.052 14.7391V14.7646L129.077 14.8408L129.102 14.968V14.9934C129.077 15.1205 129.077 15.1714 129.077 15.2732L129.052 15.3749C129.001 15.4767 129.001 15.6293 129.077 15.7564L129.102 15.8326L129.153 15.9599V16.0615L129.102 16.2396C129.077 16.3159 129.052 16.3667 129.052 16.443V16.5194L129.077 16.6211L129.102 16.7991L129.153 16.9008L129.179 16.85V17.028L129.102 17.2568L129.179 18.2742C129.204 18.4013 129.255 18.503 129.204 18.6302L129.102 19.0116C129.204 19.1642 129.255 19.3168 129.255 19.5202C129.204 19.7491 129.204 19.9017 129.28 20.0797C129.357 20.2069 129.357 20.3595 129.28 20.4612C129.204 20.5629 129.204 20.69 129.204 20.8427C129.331 20.9699 129.357 21.1479 129.331 21.3259C129.255 21.4785 129.255 21.6565 129.28 21.8345L129.331 22.3686C129.28 22.5975 129.331 22.7501 129.382 22.9536L129.331 23.0552L129.179 23.1316L128.772 22.623L128.289 22.1397L128.111 22.2415C127.983 22.1397 127.907 22.038 127.882 21.9109L127.856 21.4785C127.678 21.2241 127.424 20.9699 127.17 20.7664L127.017 20.5884L126.788 20.4612C126.737 20.2832 126.686 20.1052 126.508 19.978L126.101 19.5711H125.898L125.72 19.6728C125.542 19.6728 125.415 19.5711 125.415 19.4693V18.681L124.677 17.7909C124.372 17.4857 124.169 17.2059 123.965 16.8499L120.786 12.3993C120.685 12.2976 120.583 12.2722 120.405 12.2722L119.464 12.3993H117.455L117.073 12.2976L116.666 12.3231L116.387 12.2722L116.082 12.3231C115.98 12.3231 115.903 12.3993 115.903 12.5011V12.8062L115.98 12.8571L116.005 12.8825H116.056H116.158C116.565 12.8825 116.895 12.9588 117.277 13.0859C117.556 13.1877 117.785 13.3149 118.04 13.5183L118.218 13.6964L118.269 13.7726L118.243 13.8489L118.167 14.0778L118.141 14.1033V14.2559V14.3576L118.218 14.4847V14.7899L118.269 15.1205V15.324H118.243V15.7563V15.7817L118.319 16.0361L118.269 17.4094L118.345 17.918V17.8926L118.37 18.0198L118.345 17.918L118.37 19.4184V19.4948L118.345 19.5965V19.6728L118.421 19.8763L118.37 20.5375C118.319 20.6393 118.345 20.7664 118.421 20.8935C118.472 21.0461 118.472 21.1479 118.421 21.3259L118.472 21.5802C118.472 21.6819 118.472 21.7836 118.447 21.9108L118.421 22.1142V22.3177C118.472 22.4195 118.472 22.5212 118.472 22.6992L118.421 23.0298C118.523 23.2078 118.548 23.4113 118.548 23.6148L118.447 24.3014L118.421 24.3776V24.4794C118.32 24.6066 118.32 24.7337 118.37 24.9117C118.37 25.0643 118.345 25.2169 118.269 25.3186C118.243 25.5221 118.141 25.7001 118.04 25.8527L117.633 26.2597C117.455 26.2597 117.328 26.3359 117.201 26.4377C117.073 26.4886 116.895 26.5648 116.768 26.5648L116.59 26.7683L116.514 26.9463V26.9717L116.565 27.1243L116.666 27.1498L117.582 27.0734L117.633 27.0481H117.938L118.472 26.9717H119.006L119.159 27.0481H119.362L119.642 26.9717H119.744L119.998 27.0734L120.38 27.0481L120.736 27.0734H121.32H121.524H121.6C121.676 27.1243 121.727 27.0734 121.778 26.9717L121.804 26.692L121.702 26.5394C121.397 26.5394 121.117 26.4631 120.913 26.3613L120.252 25.8527L119.998 24.9118C119.922 24.5811 119.922 24.276 119.947 23.9199L119.922 23.5384L119.947 23.1316L119.845 22.0125L119.896 21.6819V21.6311L119.845 21.3767V21.0461L119.896 20.5375L119.845 19.6728C119.744 19.4185 119.795 19.1896 119.845 18.9607V18.9099L119.82 18.681V18.5793L119.845 18.325V18.096L119.744 17.6383L119.82 17.4857V17.4094L119.845 17.3077C119.896 17.1551 119.896 17.1042 119.82 17.0026L119.795 16.6973C119.82 16.5447 119.82 16.443 119.795 16.3414L119.693 16.0361C119.642 15.8327 119.693 15.6802 119.82 15.5529C119.947 15.5529 120.049 15.5784 120.049 15.6802L120.125 15.7818L120.151 15.9599C120.201 16.0615 120.252 16.1124 120.405 16.1633C120.405 16.3668 120.481 16.5194 120.685 16.6211C120.837 16.7228 120.99 16.85 121.092 17.0026C121.219 17.1297 121.32 17.2569 121.397 17.4349C121.422 17.5875 121.575 17.7146 121.727 17.8163L121.982 18.1724C122.109 18.325 122.261 18.503 122.363 18.681L122.49 18.8845L123.355 19.8509C123.584 20.0544 123.762 20.2578 123.889 20.563C124.067 20.6901 124.245 20.8936 124.347 21.1225L124.805 21.6819C124.855 21.86 124.957 22.0126 125.11 22.1143C125.262 22.2161 125.364 22.3432 125.44 22.5213L126.152 23.2079C126.33 23.5893 126.585 23.8946 126.915 24.098L127.093 24.3777V24.4032V24.4286L127.271 24.5812L127.424 24.7847L127.5 24.8101C127.602 24.8609 127.678 24.9627 127.704 25.0898L128.899 26.4631C128.95 26.5904 129.052 26.6666 129.153 26.7683L129.255 26.7937L129.484 27.0481L130.069 27.1498L130.145 27.1243H130.45L130.832 26.9717L130.806 26.7937C130.832 26.4377 130.832 26.0816 130.806 25.7001V23.8182L130.832 23.6911V23.6402L130.806 23.5131L130.679 22.3178L130.756 22.1652V21.7837L130.73 21.7328V21.5548L130.679 21.5295L130.73 21.5548V21.326C130.73 21.2497 130.73 21.2242 130.756 21.148L130.679 18.7828L130.73 18.4776V18.4013L130.654 17.4095L130.628 17.028C130.628 16.7991 130.628 16.5957 130.654 16.3668L130.73 16.0616V14.8409L130.857 14.3831C130.908 14.2814 130.908 14.1796 130.959 14.0779L131.137 13.6965L131.213 13.5948L131.239 13.4167C131.264 13.3659 131.341 13.2895 131.417 13.2642L131.519 13.1878L131.747 12.9844L131.9 12.9081H132.053L132.129 12.8827H132.409C132.434 12.8063 132.485 12.8063 132.536 12.8063L132.587 12.781L132.612 12.6792L132.638 12.5266L132.612 12.3232L131.951 12.2724L131.951 12.2723Z" fill="url(#paint13_linear_5_4)"/>
<path d="M128.186 21.7847V21.6576L128.11 21.5813C128.008 21.6576 127.983 21.7338 127.983 21.8356L128.085 21.9119L128.161 21.8611L128.186 21.7847H128.186Z" fill="url(#paint14_linear_5_4)"/>
<path d="M111.607 12.4134L111.353 12.4414L110.234 12.4693H110.158H110.183C110.488 12.5252 110.819 12.6371 111.124 12.8608C111.328 13.0006 111.455 13.448 111.531 14.175C111.557 14.902 111.557 15.713 111.531 16.6636L111.328 19.348V19.7675L111.251 19.8794V20.0472C111.226 20.103 111.175 20.159 111.226 20.2429C111.277 20.3268 111.277 20.4386 111.251 20.5225C111.15 20.6343 111.15 20.6903 111.226 20.8021C111.277 20.886 111.328 20.9699 111.353 21.1097C111.277 21.2495 111.277 21.4453 111.328 21.641C111.378 21.7808 111.378 21.9486 111.353 22.1443L111.226 22.424C111.277 22.5918 111.277 22.7595 111.226 22.9553L111.073 23.4866L111.226 23.8221L111.429 24.1298L111.455 24.3814C111.455 24.4653 111.455 24.5491 111.378 24.661C111.48 24.8008 111.531 24.9966 111.48 25.1364L111.429 25.6676L110.921 25.6117L110.844 25.7795L110.819 26.0032L110.666 26.1989L110.463 26.3107L109.853 26.5065L109.649 26.4785C109.598 26.5345 109.573 26.5345 109.497 26.5345L109.344 26.7582V26.9539C109.369 26.9819 109.395 27.0378 109.395 27.1217C109.446 27.1497 109.471 27.1497 109.497 27.1497L110.666 27.1217C110.87 27.1497 111.124 27.1497 111.353 27.1217L111.862 27.0657L112.04 27.1217L112.421 27.0378H112.523L112.803 27.1217L113.54 27.0378L115.168 27.1217L115.295 27.1497H115.346L115.473 27.1217C115.575 27.0657 115.651 27.0378 115.6 26.9259C115.575 26.8141 115.6 26.7302 115.676 26.6184C115.575 26.5345 115.498 26.5345 115.397 26.5345H115.168L114.481 26.2828C114.278 26.1709 114.1 25.9752 113.998 25.7515L113.794 24.9685C113.718 24.3813 113.693 23.7941 113.718 23.1789V21.3893L113.693 21.1377C113.744 20.914 113.744 20.6623 113.744 20.3827V19.5997L113.718 19.2922L113.795 15.4614L113.896 15.014V14.9021L114.023 14.287C114.074 14.0353 114.176 13.7557 114.329 13.56L114.43 13.3363L114.481 13.2803L114.608 13.1965L115.346 13.0007H115.371L115.575 12.9727L115.6 12.8888L115.651 12.805L115.702 12.4415L111.862 12.4694L111.607 12.4135L111.607 12.4134Z" fill="url(#paint15_linear_5_4)"/>
<path d="M111.045 14.8668C111.07 14.994 111.096 15.1211 111.197 15.2228L111.452 15.5534V15.6552V15.7569V15.7823L111.655 16.2401V16.2655L111.63 16.469L111.655 16.5199C111.732 16.6216 111.782 16.7233 111.757 16.8505L111.732 17.232L111.757 17.6134V17.9186L111.833 18.2238L111.757 18.9613L111.859 19.1139L111.884 17.4862C111.884 16.647 111.859 16.0112 111.757 15.4771C111.681 14.943 111.553 14.6379 111.35 14.4853L110.562 13.9767C110.358 13.8495 110.155 13.7732 109.951 13.7986L109.849 13.9767V14.1801L109.9 14.2056L110.155 14.2818C110.256 14.2818 110.358 14.3073 110.46 14.4344C110.562 14.4344 110.689 14.4598 110.765 14.5616L111.045 14.8668L111.045 14.8668Z" fill="url(#paint16_linear_5_4)"/>
<path d="M103.201 8.00049L102.896 7.92423L102.031 7.74623C101.929 7.69737 101.802 7.64581 101.675 7.64581L101.217 7.69668C101.141 7.64581 101.09 7.59494 100.988 7.59494C100.887 7.59494 100.81 7.64581 100.734 7.69668L99.1319 7.59494L97.3517 7.69668L96.5888 7.64581L93.5114 7.8493L92.9519 7.97643C92.7484 7.92555 92.5704 8.0018 92.3924 8.10355L92.3669 8.20529V8.3833L92.4942 8.61216L93.1299 8.68852L93.5114 8.79026C93.7149 8.81563 93.9183 8.91739 94.1217 9.09539L94.4015 9.4006L94.4523 9.60399L94.5032 9.65486V9.68035L94.5287 9.70572L94.6303 9.96007V9.9092L94.6558 10.1127L94.7067 10.6975C94.6558 10.9264 94.7067 11.079 94.8084 11.257L94.7576 11.4351L94.8084 11.664C94.8338 11.7403 94.8847 11.8166 94.8847 11.9183L94.8338 12.0455V12.0709L94.8084 12.2235V12.3761V12.6558V12.8084V13.0118L94.7321 13.1898V13.2153L94.8084 13.4442V14.1817V14.2326L94.8338 15.021L94.7576 15.9874L94.8084 16.4706C94.8338 16.9538 94.8847 17.4624 94.8084 17.9457L94.8338 22.8031L94.8084 23.2608L94.7067 24.4053L94.5541 24.7613L94.3506 25.1937L93.9437 25.626C93.842 25.804 93.664 25.9058 93.4605 25.9312C93.1554 26.1346 92.8501 26.211 92.4941 26.211C92.3669 26.2364 92.3415 26.3127 92.2906 26.4144V26.7958L92.3669 26.8213L92.5704 26.8976L92.8501 26.8213H94.3506L94.4269 26.7958H94.5287L94.8846 26.7196H94.9355L95.2152 26.6942H96.3851V26.7196L98.1653 26.7958L98.2416 26.8213L99.4623 26.9231L99.6658 26.8976H99.7421L99.8438 26.7958L99.9201 26.3381L99.8438 26.2872H99.7421V26.2364L99.5387 26.211L99.3606 26.1855L98.8519 26.033L97.3515 25.9312L97.3769 25.8295H97.4024L97.555 25.7278L97.5804 25.7024L97.7075 25.6515L97.9364 25.5243V25.3209L97.8347 24.9394V24.7359V24.5579L97.7584 24.2527L97.5804 23.8458C97.6566 23.6679 97.6566 23.4898 97.6566 23.2864V22.7523C97.6821 22.5743 97.6566 22.4725 97.5804 22.3454C97.555 21.9893 97.555 21.6587 97.5804 21.3027C97.6566 20.9975 97.6566 20.6669 97.5804 20.3108L97.6566 19.9802V19.9294L97.5804 19.5479L97.6566 19.4461L97.8601 19.497L98.6485 19.4461L98.8519 19.497H98.9282L98.9791 19.4461H99.3606L101.319 19.497H101.395L101.497 19.5224H101.522L101.573 19.5479L101.726 19.7259C101.878 19.7513 101.904 19.8276 101.929 19.9293L101.98 20.2091C101.98 20.2853 102.031 20.3362 102.133 20.4126C102.107 20.5397 102.107 20.6923 102.184 20.8703L102.311 21.1754L102.362 21.2772L102.514 21.4044H102.768L103.582 21.2009H103.938C104.065 21.2263 104.167 21.2263 104.294 21.2009H104.345H104.371L104.625 21.328L104.676 21.4044C104.727 21.506 104.752 21.5824 104.727 21.6841V21.6587L104.676 21.7858V21.8622L104.65 21.8875H104.498L104.345 21.6841L104.243 21.7604L104.167 21.8875L104.294 21.9893L104.396 22.0148H104.447C104.498 22.0656 104.498 22.091 104.498 22.1927L104.472 22.3454V22.3707L104.447 22.447H104.371L104.294 22.3962L104.243 22.2436L104.142 22.0656L104.065 21.9893L103.938 21.8875L103.837 21.7858L103.608 21.9639L103.404 22.0147H103.379L103.252 21.8621C103.175 21.7858 103.099 21.7604 103.023 21.8113L102.972 21.913L103.023 22.1673V22.3962C103.099 22.5996 103.201 22.7522 103.302 22.8031C103.455 22.8794 103.48 22.9557 103.506 23.0575V23.0828L103.557 23.1846L103.76 23.3881L103.938 23.5661L103.964 23.6423L103.989 23.6678L103.964 23.8203L103.938 23.8712V23.9475H103.964L103.989 24.0238L104.193 24.1764C104.269 24.2273 104.345 24.2527 104.396 24.3544L104.447 24.4307L104.396 24.7105L104.498 24.863V24.9394L104.625 24.9647L104.676 25.0411L104.752 25.3209L104.854 25.4225L104.93 25.4989V25.5242H104.956V25.5497C104.93 25.6515 104.981 25.804 105.083 25.8803L105.286 26.0837L105.337 26.1346L105.362 26.3381L105.439 26.5161L106.151 27.6096L106.329 27.8894C106.456 28.0166 106.609 28.1691 106.71 28.3472L106.939 28.6523L107.015 28.7032L107.092 28.805C107.244 28.7795 107.346 28.8558 107.448 28.9829L107.778 29.3391L107.804 29.4662L107.906 29.5424L108.185 29.5679H108.363H108.414L108.49 29.5424V29.4916L108.236 29.3898L108.567 29.3644L108.694 29.3898L108.821 29.4662H108.999L109.203 29.4407L109.304 29.4662L109.355 29.4915L109.381 29.5679L109.279 29.6442V29.873C109.381 29.9748 109.559 30.051 109.711 30.051L110.245 30.0765V29.9748C110.194 29.9494 110.144 29.9494 110.093 29.9494L109.991 29.7713L109.838 29.6442L110.144 29.5933C110.169 29.6442 110.169 29.6697 110.169 29.7204L110.144 29.7713L110.169 29.8222C110.372 30.051 110.576 30.1528 110.83 30.0765L112.432 29.7459L112.56 29.5933L112.61 29.4662V29.3898L112.636 29.161C112.56 29.0847 112.458 29.0847 112.356 29.0847H112.051L111.72 28.9321L110.245 27.9911L109.966 27.7114C109.864 27.6096 109.762 27.6096 109.609 27.686C109.508 27.8131 109.482 27.9911 109.508 28.1946L109.177 27.8131V27.5588C109.203 27.4825 109.253 27.457 109.304 27.4062L109.508 27.3299C109.457 27.1773 109.304 26.9739 109.101 26.7195L108.567 26.1346C108.567 26.0329 108.516 25.9057 108.414 25.8294L108.007 25.2445C107.88 25.1936 107.829 25.0665 107.88 24.9139C107.6 24.6087 107.397 24.2526 107.244 23.8712L106.914 23.3625C106.837 23.1591 106.736 22.9557 106.558 22.8031L106.227 22.2436C106.202 22.091 106.125 21.9638 106.024 21.8112C105.871 21.7095 105.82 21.5569 105.82 21.4043L105.439 20.7685C105.362 20.5142 105.235 20.3108 105.032 20.1073C104.956 19.8529 104.854 19.6241 104.676 19.446L104.167 18.6068V18.5051V18.4542L104.269 18.3525L104.498 18.1236C104.574 18.0727 104.676 18.0219 104.778 18.0219L105.261 17.5895C105.439 17.4624 105.54 17.2589 105.617 17.0809L105.947 16.6994L106.303 16.2417L106.507 15.8856L107.015 14.5123L107.219 13.2916V12.9356C107.193 12.7321 107.193 12.5541 107.117 12.3761L107.015 11.8166L106.99 11.7657L106.812 10.7739V10.7484L106.736 10.6975L106.609 10.7484L106.532 10.6975H106.456L106.354 10.5704H106.202C106.125 10.5704 106.049 10.5958 106.024 10.6721L106.202 10.9264L106.125 11.1299L106.024 11.257L105.922 11.1554L105.846 11.0282L105.769 10.9519L105.718 10.7993H105.617L105.235 10.8502C105.159 10.8502 105.134 10.8755 105.134 10.9264L105.159 10.9519V10.9773L105.134 11.0536L104.879 11.0281L104.676 11.0536L104.498 10.9519V10.9264L104.574 10.7484L104.828 10.6721L104.854 10.5958L106.024 9.98545L106.125 9.80745V9.65484V9.60397L106.1 9.57859L105.184 8.81561C104.854 8.53588 104.498 8.38325 104.167 8.28151L103.862 8.12899L103.658 8.1035C103.608 8.07813 103.582 8.02725 103.48 8.02725L103.201 8.00176L103.201 8.00049ZM102.616 9.80616C102.819 9.95877 102.997 10.1623 103.15 10.3911C103.455 10.7726 103.659 11.2303 103.862 11.6372L103.989 12.273C104.066 12.5019 104.091 12.8072 104.066 13.214C103.989 13.5446 103.989 13.7481 104.091 13.8243L104.269 13.977L104.396 14.0023L104.295 14.0787C104.244 14.0787 104.193 14.1041 104.167 14.1296L104.066 14.6127C104.066 14.7908 103.989 14.9179 103.964 15.0197L103.989 15.2739C103.938 15.3757 103.888 15.5028 103.888 15.6554C103.888 15.808 103.837 15.9098 103.76 16.0115C103.659 16.0878 103.659 16.164 103.659 16.2404C103.684 16.3421 103.684 16.393 103.659 16.4692L103.404 16.6981L102.718 17.5882C102.514 17.8171 102.235 17.9188 101.929 17.9443L101.828 18.0206L101.701 18.0714L101.523 18.1732L101.319 18.224L100.887 18.4275H99.8186L99.081 18.402C98.9284 18.3258 98.7759 18.3258 98.6486 18.402L98.1655 18.3258H98.14L98.1655 18.2749L97.8858 18.1732C97.7586 18.224 97.6823 18.1732 97.6823 18.0714L97.5806 17.8171V15.5537C97.5552 15.5028 97.5552 15.452 97.5806 15.3756C97.6059 15.2994 97.6568 15.223 97.6568 15.1214V14.8924C97.5552 14.689 97.5043 14.4856 97.5552 14.2821C97.5806 14.0787 97.5806 13.8497 97.5806 13.6463L97.6823 13.3157V12.7308L97.6059 12.6545L97.5552 12.3493V12.1459L97.5805 11.9678L97.6823 11.7135L97.6568 11.5863V10.2893C97.7585 10.1622 97.7585 9.98414 97.7585 9.80613C97.7077 9.65352 97.7077 9.47551 97.6568 9.3229L97.7585 9.11952L97.8603 9.09404L98.2672 8.96691L99.5134 8.86517L100.098 8.89054H100.149V8.91603H100.2H100.429L100.632 8.9669L100.658 8.99227L100.81 9.01776H100.836L101.573 9.19575C101.675 9.22113 101.726 9.27202 101.828 9.32289L102.082 9.45011L102.107 9.47549H102.133L102.616 9.80611L102.616 9.80616Z" fill="url(#paint17_linear_5_4)"/>
<defs>
<linearGradient id="paint0_linear_5_4" x1="26.0686" y1="1.26334" x2="28.5102" y2="4.1723" gradientUnits="userSpaceOnUse">
<stop stop-color="#CC9900"/>
<stop offset="0.011765" stop-color="#CF9A00"/>
<stop offset="0.25882" stop-color="#FDFFCE"/>
<stop offset="0.36078" stop-color="#CF9A00"/>
<stop offset="0.43922" stop-color="#CF9A00"/>
<stop offset="0.65882" stop-color="#CF9A00"/>
<stop offset="0.76863" stop-color="#E1E8E2"/>
<stop offset="0.98824" stop-color="#C89A00"/>
<stop offset="1" stop-color="#CF9A00"/>
</linearGradient>
<linearGradient id="paint1_linear_5_4" x1="20.4065" y1="1.04697" x2="23.1818" y2="4.35404" gradientUnits="userSpaceOnUse">
<stop stop-color="#CC9900"/>
<stop offset="0.011765" stop-color="#CF9A00"/>
<stop offset="0.25882" stop-color="#FDFFCE"/>
<stop offset="0.36078" stop-color="#CF9A00"/>
<stop offset="0.43922" stop-color="#CF9A00"/>
<stop offset="0.65882" stop-color="#CF9A00"/>
<stop offset="0.76863" stop-color="#E1E8E2"/>
<stop offset="0.98824" stop-color="#C89A00"/>
<stop offset="1" stop-color="#CF9A00"/>
</linearGradient>
<linearGradient id="paint2_linear_5_4" x1="15.1059" y1="1.2768" x2="17.5235" y2="4.15787" gradientUnits="userSpaceOnUse">
<stop stop-color="#CC9900"/>
<stop offset="0.011765" stop-color="#CF9A00"/>
<stop offset="0.25882" stop-color="#FDFFCE"/>
<stop offset="0.36078" stop-color="#CF9A00"/>
<stop offset="0.43922" stop-color="#CF9A00"/>
<stop offset="0.65882" stop-color="#CF9A00"/>
<stop offset="0.76863" stop-color="#E1E8E2"/>
<stop offset="0.98824" stop-color="#C89A00"/>
<stop offset="1" stop-color="#CF9A00"/>
</linearGradient>
<linearGradient id="paint3_linear_5_4" x1="69.4328" y1="20.2298" x2="73.039" y2="24.5283" gradientUnits="userSpaceOnUse">
<stop stop-color="#CC9900"/>
<stop offset="0.011765" stop-color="#CF9A00"/>
<stop offset="0.25882" stop-color="#FDFFCE"/>
<stop offset="0.36078" stop-color="#CF9A00"/>
<stop offset="0.43922" stop-color="#CF9A00"/>
<stop offset="0.65882" stop-color="#CF9A00"/>
<stop offset="0.76863" stop-color="#E1E8E2"/>
<stop offset="0.98824" stop-color="#C89A00"/>
<stop offset="1" stop-color="#CF9A00"/>
</linearGradient>
<linearGradient id="paint4_linear_5_4" x1="77.3567" y1="19.8739" x2="81.4726" y2="24.7783" gradientUnits="userSpaceOnUse">
<stop stop-color="#CC9900"/>
<stop offset="0.011765" stop-color="#CF9A00"/>
<stop offset="0.25882" stop-color="#FDFFCE"/>
<stop offset="0.36078" stop-color="#CF9A00"/>
<stop offset="0.43922" stop-color="#CF9A00"/>
<stop offset="0.65882" stop-color="#CF9A00"/>
<stop offset="0.76863" stop-color="#E1E8E2"/>
<stop offset="0.98824" stop-color="#C89A00"/>
<stop offset="1" stop-color="#CF9A00"/>
</linearGradient>
<linearGradient id="paint5_linear_5_4" x1="85.6942" y1="20.1528" x2="89.3099" y2="24.461" gradientUnits="userSpaceOnUse">
<stop stop-color="#CC9900"/>
<stop offset="0.011765" stop-color="#CF9A00"/>
<stop offset="0.25882" stop-color="#FDFFCE"/>
<stop offset="0.36078" stop-color="#CF9A00"/>
<stop offset="0.43922" stop-color="#CF9A00"/>
<stop offset="0.65882" stop-color="#CF9A00"/>
<stop offset="0.76863" stop-color="#E1E8E2"/>
<stop offset="0.98824" stop-color="#C89A00"/>
<stop offset="1" stop-color="#CF9A00"/>
</linearGradient>
<linearGradient id="paint6_linear_5_4" x1="73.0774" y1="8.57757" x2="77.3471" y2="13.6714" gradientUnits="userSpaceOnUse">
<stop stop-color="#CC9900"/>
<stop offset="0.011765" stop-color="#CF9A00"/>
<stop offset="0.25882" stop-color="#FDFFCE"/>
<stop offset="0.36078" stop-color="#CF9A00"/>
<stop offset="0.43922" stop-color="#CF9A00"/>
<stop offset="0.65882" stop-color="#CF9A00"/>
<stop offset="0.76863" stop-color="#E1E8E2"/>
<stop offset="0.98824" stop-color="#C89A00"/>
<stop offset="1" stop-color="#CF9A00"/>
</linearGradient>
<linearGradient id="paint7_linear_5_4" x1="81.1841" y1="8.94203" x2="84.7037" y2="13.1329" gradientUnits="userSpaceOnUse">
<stop stop-color="#CC9900"/>
<stop offset="0.011765" stop-color="#CF9A00"/>
<stop offset="0.25882" stop-color="#FDFFCE"/>
<stop offset="0.36078" stop-color="#CF9A00"/>
<stop offset="0.43922" stop-color="#CF9A00"/>
<stop offset="0.65882" stop-color="#CF9A00"/>
<stop offset="0.76863" stop-color="#E1E8E2"/>
<stop offset="0.98824" stop-color="#C89A00"/>
<stop offset="1" stop-color="#CF9A00"/>
</linearGradient>
<linearGradient id="paint8_linear_5_4" x1="71.3465" y1="19.1816" x2="71.5196" y2="19.3835" gradientUnits="userSpaceOnUse">
<stop stop-color="#CC9900"/>
<stop offset="0.011765" stop-color="#CF9A00"/>
<stop offset="0.25882" stop-color="#FDFFCE"/>
<stop offset="0.36078" stop-color="#CF9A00"/>
<stop offset="0.43922" stop-color="#CF9A00"/>
<stop offset="0.65882" stop-color="#CF9A00"/>
<stop offset="0.76863" stop-color="#E1E8E2"/>
<stop offset="0.98824" stop-color="#C89A00"/>
<stop offset="1" stop-color="#CF9A00"/>
</linearGradient>
<linearGradient id="paint9_linear_5_4" x1="111.473" y1="-83.954" x2="116.766" y2="-89.2476" gradientUnits="userSpaceOnUse">
<stop stop-color="#CC9A00"/>
<stop offset="0.011765" stop-color="#C89A00"/>
<stop offset="0.23922" stop-color="#C89A00"/>
<stop offset="0.34902" stop-color="#FCFF9E"/>
<stop offset="0.43137" stop-color="#CF9A00"/>
<stop offset="0.43922" stop-color="#C89A00"/>
<stop offset="0.56078" stop-color="#CC9A00"/>
<stop offset="0.6902" stop-color="#FFCE00"/>
<stop offset="0.98824" stop-color="#CC9A00"/>
<stop offset="1" stop-color="#CC9A00"/>
</linearGradient>
<linearGradient id="paint10_linear_5_4" x1="102.053" y1="-84.0788" x2="107.403" y2="-89.4275" gradientUnits="userSpaceOnUse">
<stop stop-color="#CC9A00"/>
<stop offset="0.011765" stop-color="#C89A00"/>
<stop offset="0.23922" stop-color="#C89A00"/>
<stop offset="0.34902" stop-color="#FCFF9E"/>
<stop offset="0.43137" stop-color="#CF9A00"/>
<stop offset="0.43922" stop-color="#C89A00"/>
<stop offset="0.56078" stop-color="#CC9A00"/>
<stop offset="0.6902" stop-color="#FFCE00"/>
<stop offset="0.98824" stop-color="#CC9A00"/>
<stop offset="1" stop-color="#CC9A00"/>
</linearGradient>
<linearGradient id="paint11_linear_5_4" x1="141.724" y1="-83.5604" x2="144.728" y2="-86.5621" gradientUnits="userSpaceOnUse">
<stop stop-color="#CC9A00"/>
<stop offset="0.011765" stop-color="#C89A00"/>
<stop offset="0.23922" stop-color="#C89A00"/>
<stop offset="0.34902" stop-color="#FCFF9E"/>
<stop offset="0.43137" stop-color="#CF9A00"/>
<stop offset="0.43922" stop-color="#C89A00"/>
<stop offset="0.56078" stop-color="#CC9A00"/>
<stop offset="0.6902" stop-color="#FFCE00"/>
<stop offset="0.98824" stop-color="#CC9A00"/>
<stop offset="1" stop-color="#CC9A00"/>
</linearGradient>
<linearGradient id="paint12_linear_5_4" x1="137.962" y1="-84.6487" x2="140.394" y2="-87.0804" gradientUnits="userSpaceOnUse">
<stop stop-color="#CC9A00"/>
<stop offset="0.011765" stop-color="#C89A00"/>
<stop offset="0.23922" stop-color="#C89A00"/>
<stop offset="0.34902" stop-color="#FCFF9E"/>
<stop offset="0.43137" stop-color="#CF9A00"/>
<stop offset="0.43922" stop-color="#C89A00"/>
<stop offset="0.56078" stop-color="#CC9A00"/>
<stop offset="0.6902" stop-color="#FFCE00"/>
<stop offset="0.98824" stop-color="#CC9A00"/>
<stop offset="1" stop-color="#CC9A00"/>
</linearGradient>
<linearGradient id="paint13_linear_5_4" x1="133.932" y1="-84.5727" x2="136.524" y2="-87.1646" gradientUnits="userSpaceOnUse">
<stop stop-color="#CC9A00"/>
<stop offset="0.011765" stop-color="#C89A00"/>
<stop offset="0.23922" stop-color="#C89A00"/>
<stop offset="0.34902" stop-color="#FCFF9E"/>
<stop offset="0.43137" stop-color="#CF9A00"/>
<stop offset="0.43922" stop-color="#C89A00"/>
<stop offset="0.56078" stop-color="#CC9A00"/>
<stop offset="0.6902" stop-color="#FFCE00"/>
<stop offset="0.98824" stop-color="#CC9A00"/>
<stop offset="1" stop-color="#CC9A00"/>
</linearGradient>
<linearGradient id="paint14_linear_5_4" x1="136.279" y1="-85.2658" x2="136.328" y2="-85.3119" gradientUnits="userSpaceOnUse">
<stop stop-color="#CC9A00"/>
<stop offset="0.011765" stop-color="#C89A00"/>
<stop offset="0.23922" stop-color="#C89A00"/>
<stop offset="0.34902" stop-color="#FCFF9E"/>
<stop offset="0.43137" stop-color="#CF9A00"/>
<stop offset="0.43922" stop-color="#C89A00"/>
<stop offset="0.56078" stop-color="#CC9A00"/>
<stop offset="0.6902" stop-color="#FFCE00"/>
<stop offset="0.98824" stop-color="#CC9A00"/>
<stop offset="1" stop-color="#CC9A00"/>
</linearGradient>
<linearGradient id="paint15_linear_5_4" x1="130.993" y1="-84.8306" x2="132.833" y2="-86.8525" gradientUnits="userSpaceOnUse">
<stop stop-color="#CC9A00"/>
<stop offset="0.011765" stop-color="#C89A00"/>
<stop offset="0.23922" stop-color="#C89A00"/>
<stop offset="0.34902" stop-color="#FCFF9E"/>
<stop offset="0.43137" stop-color="#CF9A00"/>
<stop offset="0.43922" stop-color="#C89A00"/>
<stop offset="0.56078" stop-color="#CC9A00"/>
<stop offset="0.6902" stop-color="#FFCE00"/>
<stop offset="0.98824" stop-color="#CC9A00"/>
<stop offset="1" stop-color="#CC9A00"/>
</linearGradient>
<linearGradient id="paint16_linear_5_4" x1="131.101" y1="-86.44" x2="131.788" y2="-87.1266" gradientUnits="userSpaceOnUse">
<stop stop-color="#CC9A00"/>
<stop offset="0.011765" stop-color="#C89A00"/>
<stop offset="0.23922" stop-color="#C89A00"/>
<stop offset="0.34902" stop-color="#FCFF9E"/>
<stop offset="0.43137" stop-color="#CF9A00"/>
<stop offset="0.43922" stop-color="#C89A00"/>
<stop offset="0.56078" stop-color="#CC9A00"/>
<stop offset="0.6902" stop-color="#FFCE00"/>
<stop offset="0.98824" stop-color="#CC9A00"/>
<stop offset="1" stop-color="#CC9A00"/>
</linearGradient>
<linearGradient id="paint17_linear_5_4" x1="127.258" y1="-84.2824" x2="130.89" y2="-87.9137" gradientUnits="userSpaceOnUse">
<stop stop-color="#CC9A00"/>
<stop offset="0.011765" stop-color="#C89A00"/>
<stop offset="0.23922" stop-color="#C89A00"/>
<stop offset="0.34902" stop-color="#FCFF9E"/>
<stop offset="0.43137" stop-color="#CF9A00"/>
<stop offset="0.43922" stop-color="#C89A00"/>
<stop offset="0.56078" stop-color="#CC9A00"/>
<stop offset="0.6902" stop-color="#FFCE00"/>
<stop offset="0.98824" stop-color="#CC9A00"/>
<stop offset="1" stop-color="#CC9A00"/>
</linearGradient>
</defs>
</svg>
